# xmcd
#
# Track frame offsets:
#   150
#   16685
#   32055
#   45585
#   58032
#   75769
#   92734
#   105956
#   118361
#   132218
#   145718
#   165405
#   181413
#   194513
#   209303
#   222828
#
# Disc length: 3183 seconds
#
# Revision: 0
# Processed by: cddbd v1.5.2PL0 Copyright (c) Steve Scherf et al.
# Submitted via: uFREEDB ActiveX Control 1.5
#
DISCID=ce0c6d10
DTITLE=Clara Nunes - Clara Nunes 16 Hits
DYEAR=2000
DGENRE=Samba
TTITLE0=Conto de Areia
TTITLE1=Morena de Angola
TTITLE2=Na Linha do Mar
TTITLE3=Quando Vim de Minas
TTITLE4=As Forças da Natureza
TTITLE5=Portela na Avenia
TTITLE6=Alvorecer
TTITLE7=Peixe com Côco
TTITLE8=É Doce Morrer no Mar
TTITLE9=O Mar Serenou
TTITLE10=Canto das Tres Raças
TTITLE11=Nação
TTITLE12=Juízo Final
TTITLE13=Tristeza Pé no Chão
TTITLE14=Coisa da Antiga
TTITLE15=Você Passa Eu Acho Graça
EXTD=
EXTT0=
EXTT1=
EXTT2=
EXTT3=
EXTT4=
EXTT5=
EXTT6=
EXTT7=
EXTT8=
EXTT9=
EXTT10=
EXTT11=
EXTT12=
EXTT13=
EXTT14=
EXTT15=
PLAYORDER=
